<svg xmlns="http://www.w3.org/2000/svg" xmlns:svgjs="http://svgjs.com/svgjs" xmlns:xlink="http://www.w3.org/1999/xlink" width="288" height="288"><svg xmlns="http://www.w3.org/2000/svg" width="288" height="288" viewBox="0 0 24 24"><path fill="#9ca3af" d="M4 16.063a.5.5 0 0 1-.5-.5V8.542a.5.5 0 0 1 1 0v7.021a.5.5 0 0 1-.5.5zM17 16.063a.5.5 0 0 1-.5-.5V8.542a.5.5 0 0 1 1 0v7.021a.5.5 0 0 1-.5.5zM8.031 16.063a.5.5 0 0 1-.48-.357l-1.059-3.633.008 3.49a.5.5 0 0 1-.499.5H6a.5.5 0 0 1-.5-.498l-.016-7.022a.5.5 0 0 1 .429-.496.512.512 0 0 1 .551.353l1.558 5.344 1.497-5.338a.5.5 0 1 1 .982.136v7.021a.5.5 0 0 1-1 0v-3.386l-.987 3.521a.497.497 0 0 1-.479.364l-.004.001z" class="color000 svgShape"/><path fill="#9ca3af" d="M22 19H2c-.827 0-1.5-.673-1.5-1.5v-11C.5 5.673 1.173 5 2 5h20c.827 0 1.5.673 1.5 1.5v11c0 .827-.673 1.5-1.5 1.5zM2 6a.5.5 0 0 0-.5.5v11a.5.5 0 0 0 .5.5h20c.275 0 .5-.225.5-.5v-11c0-.275-.225-.5-.5-.5H2z" class="color000 svgShape"/><path fill="#9ca3af" d="M19.063 16H17a.501.501 0 0 1-.5-.5v-5c0-.275.225-.5.5-.5h2.063a1.44 1.44 0 0 1 1.438 1.438v3.125A1.44 1.44 0 0 1 19.063 16zM17.5 15h1.563a.437.437 0 0 0 .438-.438v-3.125a.439.439 0 0 0-.438-.438H17.5V15zM14.063 16H12a.5.5 0 0 1-.5-.5v-7A.5.5 0 0 1 12 8h2.063A1.44 1.44 0 0 1 15.5 9.438v5.125A1.44 1.44 0 0 1 14.063 16zM12.5 15h1.563a.437.437 0 0 0 .438-.438V9.438A.439.439 0 0 0 14.063 9H12.5v6z" class="color000 svgShape"/></svg></svg>